<svg width="64" height="64" viewBox="0 0 64 64" fill="none" xmlns="http://www.w3.org/2000/svg">
<path d="M23.5855 35C24.8207 35 26.0259 34.5882 27 33.8348L19.1667 26C17.2787 28.4408 17.7306 31.9565 20.171 33.8449C21.1552 34.5882 22.3503 35 23.5855 35Z" fill="#06806A"/>
<path d="M46 29.4145C46 28.1793 45.5882 26.9741 44.8348 26L37 33.8333C39.4408 35.7213 42.9464 35.2694 44.8348 32.829C45.5882 31.8549 46 30.6497 46 29.4145Z" fill="#06806A"/>
<path d="M49.9677 21L46.5822 24.398C49.3102 27.6777 48.8784 32.5629 45.6107 35.301C42.7453 37.7042 38.5845 37.7042 35.7191 35.301L32 39.0339L28.2906 35.3109C25.0229 38.0489 20.1556 37.6156 17.4276 34.3358C15.0332 31.4598 15.0332 27.2838 17.4276 24.4078L15.6906 22.6645L14.0421 21C12.05 24.2896 11 28.0717 11 31.9227C11 43.5645 20.4009 53 32 53C43.599 53 52.9999 43.5645 52.9999 31.9227C53.0097 28.0717 51.9499 24.2896 49.9677 21Z" fill="#06806A"/>
<path d="M47.4982 17.271C39.3386 9.18223 25.7827 8.87949 17.2226 16.5898C16.9723 16.8169 16.732 17.0439 16.5018 17.271C15.9711 17.8008 15.4706 18.3495 15 18.9266L32 35L49 18.9266C48.5395 18.3495 48.0289 17.8008 47.4982 17.271ZM32 13.6476C37.0059 13.6476 41.6714 15.4735 45.1755 18.8036L32 31.2536L18.8245 18.8036C22.3286 15.4735 26.9941 13.6476 32 13.6476Z" fill="#06806A"/>
</svg>
